<svg xmlns="http://www.w3.org/2000/svg" viewBox="0 0 32 32" fill="none">
  <rect x="2" y="2" width="28" height="28" rx="14" fill="#8B1538"/>
  <path d="M10 21V11H17.2C19.3 11 20.5 12.2 20.5 14C20.5 15.2 19.9 16.1 18.8 16.5C20.2 16.8 21 17.8 21 19.2C21 21.3 19.4 22.5 16.9 22.5H10V21ZM13 15.4H16.6C17.2 15.4 17.6 15 17.6 14.4C17.6 13.8 17.2 13.4 16.6 13.4H13V15.4ZM13 20.1H16.9C17.8 20.1 18.2 19.6 18.2 18.9C18.2 18.2 17.7 17.8 16.9 17.8H13V20.1Z" fill="white"/>
  <circle cx="23.5" cy="10.5" r="2.5" fill="#F8E8EA"/>
</svg>
